<svg width="32" height="32" viewBox="0 0 32 32" fill="none" xmlns="http://www.w3.org/2000/svg">
  <!-- Outer Ring -->
  <circle
    cx="16"
    cy="16"
    r="14"
    stroke="url(#faviconGradient)"
    stroke-width="2"
    fill="none"
  />
  
  <!-- Inner Hexagon -->
  <path
    d="M16 5L24 9.5V22.5L16 27L8 22.5V9.5L16 5Z"
    fill="url(#faviconGradient)"
    opacity="0.3"
  />
  
  <!-- Center Dot -->
  <circle
    cx="16"
    cy="16"
    r="2.5"
    fill="url(#faviconGradient)"
  />
  
  <!-- Tech Lines -->
  <line
    x1="10"
    y1="16"
    x2="22"
    y2="16"
    stroke="url(#faviconGradient)"
    stroke-width="1.5"
    opacity="0.7"
  />
  <line
    x1="16"
    y1="10"
    x2="16"
    y2="22"
    stroke="url(#faviconGradient)"
    stroke-width="1.5"
    opacity="0.7"
  />
  
  <!-- Initial 'S' in modern style -->
  <path
    d="M12 12C12 11 13 10 14 10H18C19 10 20 11 20 12C20 13 19 14 18 14H14C13 14 12 15 12 16C12 17 13 18 14 18H18C19 18 20 17 20 16"
    stroke="url(#faviconGradient)"
    stroke-width="1.5"
    fill="none"
    stroke-linecap="round"
    opacity="0.8"
  />
  
  <!-- Gradient Definition -->
  <defs>
    <linearGradient
      id="faviconGradient"
      x1="0%"
      y1="0%"
      x2="100%"
      y2="100%"
    >
      <stop offset="0%" stop-color="#06b6d4" />
      <stop offset="50%" stop-color="#3b82f6" />
      <stop offset="100%" stop-color="#8b5cf6" />
    </linearGradient>
  </defs>
</svg>
